<svg fill="none" height="120" viewBox="0 0 1000 120" width="1000" xmlns="http://www.w3.org/2000/svg"><g clip-rule="evenodd" fill="#000" fill-rule="evenodd"><path d="m915.863 118.121c7.873-.06 16.205.169 24.775-.289 8.581-.458 17.4-1.593 25.642-5.435 8.232-3.842 15.887-10.372 21.262-19.6188 5.385-9.257 8.491-21.2116 8.491-33.1662 0-11.9545-3.106-23.9189-8.491-33.166-5.375-9.2471-13.03-15.7868-21.262-19.61898-8.242-3.84218-17.061-4.977-25.642-5.43487-8.57-.457878-16.902-.22886-24.775-.28858h-19.948v117.01743zm-3.544-111.38366.02 105.73966c13.557-.289 29.335 1.065 42.992-6.51 6.828-3.792 13.129-9.8144 17.499-17.9168 4.38-8.0925 6.828-18.2753 6.818-28.4581 0-10.1728-2.448-20.3456-6.828-28.448-4.37-8.0924-10.671-14.1145-17.509-17.8969-13.657-7.57488-29.435-6.21124-42.992-6.50986z"/><path d="m728.158 1.10733c4.838.2588 12.532-.796253 21.123 2.16999 4.3 1.47316 8.819 3.96156 12.452 7.78388 3.633 3.8222 6.371 8.9783 7.506 14.5823 1.124 5.614.657 11.6659-1.344 16.9514-2.011 5.2855-5.535 9.8045-9.516 12.9201-7.974 6.2311-17.778 6.868-24.05 6.8979l38.075 55.6821h-19.888l-38.055-55.6622h-24.318v55.6822h-16.404v-117.0276zm-8.72 55.68177c4.241-.2489 11.487.8461 19.112-2.4785 3.822-1.6524 7.734-4.4195 10.512-8.3513 2.777-3.9417 4.399-9.0679 4.399-14.1842 0-5.1262-1.622-10.2425-4.399-14.1842-2.778-3.9417-6.69-6.6989-10.512-8.36122-7.625-3.31462-14.871-2.22964-19.112-2.47849h-29.295v50.03791z"/><path d="m3.00098 118.102h26.43822l58.4206-117.00752h-26.4381z"/><path d="m441.121 1.10645v5.6537h50.219v111.35385h16.404v-111.35385h50.169v-5.6537z"/><path d="m247.951 1.09253-.029 117.02747h84.839v-5.654h-68.405v-111.37347z"/></g></svg>