<svg width="704" height="515" viewBox="0 0 704 515" fill="none" xmlns="http://www.w3.org/2000/svg">
<path d="M658.201 53.8394H-18V514.135H658.201V53.8394Z" fill="#FFC000"/>
<path d="M695.914 0H30.494C28.3506 0.00323884 26.2959 0.855421 24.7802 2.36977C23.2646 3.88411 22.4116 5.93709 22.4083 8.07872V457.603C22.4083 458.664 22.6174 459.714 23.0237 460.695C23.43 461.675 24.0256 462.566 24.7765 463.316C25.5273 464.066 26.4187 464.661 27.3997 465.067C28.3807 465.473 29.4322 465.682 30.494 465.682H695.914C696.976 465.682 698.028 465.473 699.009 465.067C699.99 464.661 700.881 464.066 701.632 463.316C702.383 462.565 702.978 461.675 703.385 460.695C703.791 459.714 704 458.664 704 457.603V8.07872C703.997 5.9371 703.144 3.88414 701.628 2.3698C700.113 0.855452 698.058 0.00325966 695.914 0V0ZM698.61 457.603C698.611 457.957 698.542 458.308 698.407 458.635C698.272 458.962 698.073 459.259 697.823 459.51C697.572 459.76 697.275 459.958 696.947 460.093C696.62 460.228 696.269 460.297 695.914 460.296H30.494C30.1398 460.297 29.7888 460.228 29.4613 460.093C29.1338 459.958 28.8362 459.76 28.5857 459.51C28.3352 459.259 28.1368 458.962 28.0017 458.635C27.8667 458.308 27.7977 457.957 27.7988 457.603V8.07874C27.7999 7.36486 28.0842 6.68052 28.5894 6.17573C29.0946 5.67094 29.7796 5.38688 30.494 5.3858H695.914C696.629 5.38687 697.314 5.67093 697.819 6.17573C698.324 6.68052 698.609 7.36486 698.61 8.07874V457.603Z" fill="#3F3D56"/>
<path d="M357.924 317.633H61.3675C59.1944 317.633 57.4329 319.393 57.4329 321.564V348.694C57.4329 350.866 59.1944 352.626 61.3675 352.626H357.924C360.097 352.626 361.858 350.866 361.858 348.694V321.564C361.858 319.393 360.097 317.633 357.924 317.633Z" fill="#3F3D56"/>
<path d="M639.335 288.026H542.366C541.305 288.026 540.253 288.235 539.272 288.641C538.291 289.047 537.4 289.642 536.649 290.393C535.898 291.143 535.302 292.033 534.896 293.013C534.49 293.994 534.281 295.044 534.281 296.105V371.468C534.281 372.529 534.49 373.58 534.896 374.56C535.302 375.54 535.898 376.431 536.649 377.181C537.4 377.931 538.291 378.526 539.272 378.932C540.253 379.338 541.305 379.547 542.366 379.547H639.335C640.396 379.547 641.448 379.338 642.429 378.932C643.41 378.526 644.301 377.931 645.052 377.181C645.803 376.431 646.399 375.54 646.805 374.56C647.211 373.58 647.42 372.529 647.42 371.468V296.105C647.42 295.044 647.211 293.994 646.805 293.013C646.399 292.033 645.803 291.143 645.052 290.393C644.301 289.642 643.41 289.047 642.429 288.641C641.448 288.235 640.396 288.026 639.335 288.026V288.026ZM642.03 371.468C642.029 372.182 641.744 372.866 641.239 373.371C640.734 373.876 640.049 374.16 639.335 374.161H542.366C541.652 374.16 540.967 373.876 540.462 373.371C539.957 372.866 539.672 372.182 539.671 371.468V296.105C539.67 295.751 539.739 295.4 539.874 295.073C540.009 294.746 540.208 294.449 540.458 294.198C540.709 293.948 541.006 293.75 541.334 293.615C541.661 293.48 542.012 293.411 542.366 293.412H639.335C639.689 293.411 640.04 293.48 640.367 293.615C640.695 293.75 640.992 293.948 641.243 294.198C641.493 294.449 641.692 294.746 641.827 295.073C641.962 295.401 642.031 295.751 642.03 296.105V371.468Z" fill="#3F3D56"/>
<path d="M619.97 305.416H561.732C559.559 305.416 557.797 307.176 557.797 309.347V315.151C557.797 317.322 559.559 319.082 561.732 319.082H619.97C622.143 319.082 623.904 317.322 623.904 315.151V309.347C623.904 307.176 622.143 305.416 619.97 305.416Z" fill="#3F3D56"/>
<path d="M619.97 326.95H561.732C559.559 326.95 557.797 328.71 557.797 330.881V336.685C557.797 338.856 559.559 340.616 561.732 340.616H619.97C622.143 340.616 623.904 338.856 623.904 336.685V330.881C623.904 328.71 622.143 326.95 619.97 326.95Z" fill="#3F3D56"/>
<path d="M619.97 348.484H561.732C559.559 348.484 557.797 350.244 557.797 352.416V358.219C557.797 360.39 559.559 362.15 561.732 362.15H619.97C622.143 362.15 623.904 360.39 623.904 358.219V352.416C623.904 350.244 622.143 348.484 619.97 348.484Z" fill="#3F3D56"/>
<path d="M201.67 32.3057H69.4495C67.2765 32.3057 65.5149 34.0658 65.5149 36.237V87.5932C65.5149 89.7644 67.2765 91.5245 69.4495 91.5245H201.67C203.843 91.5245 205.604 89.7644 205.604 87.5932V36.237C205.604 34.0658 203.843 32.3057 201.67 32.3057Z" fill="#3F3D56"/>
<path d="M146.336 61.9152C146.336 72.3215 141.511 80.7576 135.56 80.7576C129.608 80.7576 124.784 72.3215 124.784 61.9152C124.784 51.5088 135.56 43.0728 135.56 43.0728C135.56 43.0728 146.336 51.5088 146.336 61.9152V61.9152Z" fill="#FFC000"/>
<path opacity="0.3" d="M554.701 127.103C563.15 127.103 570 120.247 570 111.789C570 103.331 563.15 96.4751 554.701 96.4751C546.252 96.4751 539.402 103.331 539.402 111.789C539.402 120.247 546.252 127.103 554.701 127.103Z" fill="#CCCCCC"/>
<path d="M554.701 120.457C559.484 120.457 563.361 116.576 563.361 111.789C563.361 107.002 559.484 103.121 554.701 103.121C549.918 103.121 546.041 107.002 546.041 111.789C546.041 116.576 549.918 120.457 554.701 120.457Z" fill="#FFC000"/>
<path opacity="0.3" d="M544.598 84.6281C553.047 84.6281 559.897 77.7718 559.897 69.3141C559.897 60.8563 553.047 54 544.598 54C536.149 54 529.299 60.8563 529.299 69.3141C529.299 77.7718 536.149 84.6281 544.598 84.6281Z" fill="#CCCCCC"/>
<path d="M544.598 77.9822C549.381 77.9822 553.258 74.1012 553.258 69.3138C553.258 64.5265 549.381 60.6455 544.598 60.6455C539.815 60.6455 535.938 64.5265 535.938 69.3138C535.938 74.1012 539.815 77.9822 544.598 77.9822Z" fill="#FFC000"/>
<path opacity="0.3" d="M305.299 142.417C313.748 142.417 320.598 135.561 320.598 127.103C320.598 118.645 313.748 111.789 305.299 111.789C296.85 111.789 290 118.645 290 127.103C290 135.561 296.85 142.417 305.299 142.417Z" fill="#CCCCCC"/>
<path d="M305.299 135.771C310.082 135.771 313.959 131.89 313.959 127.103C313.959 122.316 310.082 118.435 305.299 118.435C300.516 118.435 296.639 122.316 296.639 127.103C296.639 131.89 300.516 135.771 305.299 135.771Z" fill="#FFC000"/>
<path opacity="0.3" d="M318.866 261.462C327.315 261.462 334.165 254.606 334.165 246.148C334.165 237.69 327.315 230.834 318.866 230.834C310.417 230.834 303.567 237.69 303.567 246.148C303.567 254.606 310.417 261.462 318.866 261.462Z" fill="#CCCCCC"/>
<path d="M318.866 254.817C323.649 254.817 327.526 250.936 327.526 246.148C327.526 241.361 323.649 237.48 318.866 237.48C314.083 237.48 310.206 241.361 310.206 246.148C310.206 250.936 314.083 254.817 318.866 254.817Z" fill="#FFC000"/>
<path opacity="0.3" d="M339.649 98.2087C348.099 98.2087 354.948 91.3524 354.948 82.8946C354.948 74.4369 348.099 67.5806 339.649 67.5806C331.2 67.5806 324.351 74.4369 324.351 82.8946C324.351 91.3524 331.2 98.2087 339.649 98.2087Z" fill="#CCCCCC"/>
<path d="M339.649 91.5628C344.432 91.5628 348.309 87.6818 348.309 82.8944C348.309 78.107 344.432 74.2261 339.649 74.2261C334.867 74.2261 330.99 78.107 330.99 82.8944C330.99 87.6818 334.867 91.5628 339.649 91.5628Z" fill="#FFC000"/>
<path d="M540.557 178.535C540.557 230.066 503.634 272.965 454.825 282.171C454.634 282.208 454.441 282.243 454.247 282.278C451.214 282.836 448.135 283.258 445.01 283.546C444.817 283.567 444.626 283.584 444.433 283.598C441.391 283.864 438.311 283.998 435.196 284C435.003 284 434.812 284 434.619 283.997C431.507 283.983 428.428 283.832 425.381 283.546C425.188 283.532 424.998 283.512 424.804 283.491C421.684 283.188 418.605 282.748 415.567 282.171C415.374 282.136 415.18 282.099 414.99 282.061C366.466 272.627 329.835 229.863 329.835 178.535C329.835 120.29 377.008 73.0703 435.196 73.0703C493.384 73.0703 540.557 120.29 540.557 178.535Z" fill="#3F3D56"/>
<path d="M455.113 133.315H454.536V218.988H455.113V133.315Z" fill="#FFC000"/>
<path d="M455.113 96.5913H454.536V121.866H455.113V96.5913Z" fill="#FFC000"/>
<path d="M415.567 93.9536H414.99V218.987H415.567V93.9536Z" fill="#FFC000"/>
<path d="M425.381 82.8945H424.804V111.054H425.381V82.8945Z" fill="#FFC000"/>
<path d="M425.381 124.502H424.804V210.214H425.381V124.502Z" fill="#FFC000"/>
<path d="M425.381 223.538V283.546C425.188 283.532 424.998 283.511 424.804 283.491V223.538H425.381Z" fill="#FFC000"/>
<path d="M435.196 73.6484H434.619V153.208H435.196V73.6484Z" fill="#FFC000"/>
<path d="M435.196 164.238V284C435.002 284 434.812 284 434.619 283.997V164.238H435.196Z" fill="#FFC000"/>
<path d="M445.01 82.8945H444.433V193.271H445.01V82.8945Z" fill="#FFC000"/>
<path d="M445.01 205.118H444.433V267.002H445.01V205.118Z" fill="#FFC000"/>
<path d="M445.01 280.108V283.546C444.817 283.567 444.626 283.584 444.433 283.598V280.108H445.01Z" fill="#FFC000"/>
<path d="M454.825 234.013V282.171C454.634 282.209 454.441 282.243 454.247 282.278V234.013H454.825Z" fill="#FFC000"/>
<path d="M415.567 234.013V282.171C415.374 282.136 415.18 282.099 414.99 282.061V234.013H415.567Z" fill="#FFC000"/>
<path d="M405.753 105.143H405.175V123.176H405.753V105.143Z" fill="#FFC000"/>
<path d="M405.753 136.718H405.175V218.987H405.753V136.718Z" fill="#FFC000"/>
<path d="M395.938 111.789H395.361V218.988H395.938V111.789Z" fill="#FFC000"/>
<path d="M386.124 120.458H385.546V155.392H386.124V120.458Z" fill="#FFC000"/>
<path d="M386.124 166.968H385.546V218.987H386.124V166.968Z" fill="#FFC000"/>
<path d="M376.309 129.704H375.732V187.936H376.309V129.704Z" fill="#FFC000"/>
<path d="M376.309 198.761H375.732V218.987H376.309V198.761Z" fill="#FFC000"/>
<path d="M366.495 138.372H365.918V157.904H366.495V138.372Z" fill="#FFC000"/>
<path d="M366.495 170.681H365.918V218.987H366.495V170.681Z" fill="#FFC000"/>
<path d="M356.68 142.995H356.103V218.988H356.68V142.995Z" fill="#FFC000"/>
<path d="M346.866 163.799H346.289V188.919H346.866V163.799Z" fill="#FFC000"/>
<path d="M346.866 200.386H346.289V218.987H346.866V200.386Z" fill="#FFC000"/>
<path d="M460.717 105.143H460.418V214.075H460.717V105.143Z" fill="#FFC000"/>
<path d="M474.454 111.789H473.876V128.964H474.454V111.789Z" fill="#FFC000"/>
<path d="M474.454 140.431H473.876V218.987H474.454V140.431Z" fill="#FFC000"/>
<path d="M484.268 128.259H483.691V138.372H484.268V128.259Z" fill="#FFC000"/>
<path d="M484.268 149.713H483.691V199.949H484.268V149.713Z" fill="#FFC000"/>
<path d="M484.268 210.214H483.691V218.987H484.268V210.214Z" fill="#FFC000"/>
<path d="M494.082 129.704H493.505V218.988H494.082V129.704Z" fill="#FFC000"/>
<path d="M503.897 138.372H503.32V166.968H503.897V138.372Z" fill="#FFC000"/>
<path d="M503.897 177.78H503.32V218.987H503.897V177.78Z" fill="#FFC000"/>
<path d="M513.711 142.995H513.134V218.988H513.711V142.995Z" fill="#FFC000"/>
<path d="M415.278 234.301C414.707 234.301 414.149 234.132 413.675 233.814C413.2 233.497 412.83 233.046 412.611 232.518C412.393 231.99 412.336 231.409 412.447 230.848C412.559 230.288 412.834 229.773 413.237 229.369C413.641 228.965 414.155 228.689 414.715 228.578C415.275 228.466 415.856 228.524 416.383 228.742C416.91 228.961 417.361 229.331 417.678 229.807C417.996 230.282 418.165 230.84 418.165 231.412C418.164 232.178 417.86 232.912 417.318 233.454C416.777 233.996 416.044 234.3 415.278 234.301V234.301ZM415.278 229.1C414.822 229.1 414.375 229.236 413.995 229.49C413.616 229.744 413.32 230.105 413.145 230.527C412.97 230.95 412.924 231.414 413.013 231.863C413.103 232.311 413.322 232.723 413.645 233.046C413.968 233.37 414.38 233.59 414.828 233.679C415.276 233.768 415.74 233.722 416.162 233.548C416.584 233.373 416.945 233.076 417.198 232.696C417.452 232.316 417.588 231.869 417.588 231.412C417.587 230.799 417.343 230.212 416.91 229.778C416.478 229.345 415.891 229.101 415.278 229.1V229.1Z" fill="#FFC000"/>
<path d="M425.093 219.276C424.522 219.276 423.964 219.107 423.489 218.789C423.014 218.472 422.644 218.021 422.426 217.493C422.207 216.965 422.15 216.384 422.262 215.823C422.373 215.263 422.648 214.748 423.052 214.344C423.455 213.94 423.97 213.665 424.53 213.553C425.09 213.442 425.67 213.499 426.197 213.718C426.725 213.936 427.176 214.307 427.493 214.782C427.81 215.257 427.979 215.816 427.979 216.387C427.978 217.153 427.674 217.887 427.133 218.429C426.592 218.971 425.858 219.276 425.093 219.276V219.276ZM425.093 214.075C424.636 214.075 424.19 214.211 423.81 214.465C423.43 214.719 423.134 215.08 422.959 215.502C422.784 215.925 422.739 216.39 422.828 216.838C422.917 217.286 423.137 217.698 423.46 218.022C423.783 218.345 424.194 218.565 424.642 218.654C425.09 218.743 425.555 218.698 425.976 218.523C426.398 218.348 426.759 218.051 427.013 217.671C427.267 217.291 427.402 216.844 427.402 216.387C427.401 215.774 427.158 215.187 426.725 214.753C426.292 214.32 425.705 214.076 425.093 214.075V214.075Z" fill="#FFC000"/>
<path d="M454.825 234.301C454.254 234.301 453.696 234.132 453.221 233.814C452.746 233.497 452.376 233.046 452.158 232.518C451.939 231.99 451.882 231.409 451.994 230.848C452.105 230.288 452.38 229.773 452.784 229.369C453.187 228.965 453.702 228.689 454.262 228.578C454.822 228.466 455.402 228.524 455.929 228.742C456.457 228.961 456.908 229.331 457.225 229.807C457.542 230.282 457.711 230.84 457.711 231.412C457.71 232.178 457.406 232.912 456.865 233.454C456.324 233.996 455.59 234.3 454.825 234.301V234.301ZM454.825 229.1C454.368 229.1 453.922 229.236 453.542 229.49C453.162 229.744 452.866 230.105 452.691 230.527C452.516 230.95 452.471 231.414 452.56 231.863C452.649 232.311 452.869 232.723 453.192 233.046C453.515 233.37 453.926 233.59 454.374 233.679C454.822 233.768 455.287 233.722 455.708 233.548C456.13 233.373 456.491 233.076 456.745 232.696C456.999 232.316 457.134 231.869 457.134 231.412C457.133 230.799 456.89 230.212 456.457 229.778C456.024 229.345 455.437 229.101 454.825 229.1V229.1Z" fill="#FFC000"/>
<path d="M444.722 270.419C444.151 270.419 443.593 270.589 443.118 270.906C442.643 271.224 442.273 271.675 442.055 272.203C441.836 272.731 441.779 273.312 441.891 273.873C442.002 274.433 442.277 274.948 442.681 275.352C443.084 275.756 443.599 276.031 444.158 276.143C444.718 276.254 445.299 276.197 445.826 275.978C446.354 275.76 446.805 275.389 447.122 274.914C447.439 274.439 447.608 273.88 447.608 273.309C447.607 272.543 447.302 271.809 446.761 271.267C446.22 270.726 445.487 270.421 444.722 270.419V270.419ZM444.722 275.62C444.265 275.62 443.818 275.485 443.439 275.231C443.059 274.977 442.763 274.616 442.588 274.193C442.413 273.771 442.368 273.306 442.457 272.858C442.546 272.41 442.766 271.998 443.089 271.674C443.412 271.351 443.823 271.131 444.271 271.042C444.719 270.953 445.183 270.998 445.605 271.173C446.027 271.348 446.388 271.645 446.642 272.025C446.895 272.405 447.031 272.852 447.031 273.309C447.03 273.922 446.787 274.509 446.354 274.943C445.921 275.376 445.334 275.62 444.722 275.62Z" fill="#FFC000"/>
<path d="M444.722 201.651C444.151 201.651 443.593 201.482 443.118 201.164C442.643 200.847 442.273 200.395 442.055 199.867C441.836 199.339 441.779 198.758 441.891 198.198C442.002 197.637 442.277 197.122 442.681 196.718C443.084 196.314 443.599 196.039 444.158 195.928C444.718 195.816 445.299 195.873 445.826 196.092C446.354 196.311 446.805 196.681 447.122 197.156C447.439 197.631 447.608 198.19 447.608 198.762C447.607 199.528 447.303 200.262 446.762 200.804C446.221 201.345 445.487 201.65 444.722 201.651V201.651ZM444.722 196.45C444.265 196.45 443.818 196.586 443.439 196.84C443.059 197.094 442.763 197.455 442.588 197.877C442.413 198.299 442.368 198.764 442.457 199.212C442.546 199.661 442.766 200.073 443.089 200.396C443.412 200.719 443.823 200.939 444.271 201.029C444.719 201.118 445.183 201.072 445.605 200.897C446.027 200.722 446.388 200.426 446.642 200.046C446.895 199.666 447.031 199.219 447.031 198.762C447.03 198.149 446.787 197.561 446.354 197.128C445.921 196.694 445.334 196.451 444.722 196.45Z" fill="#FFC000"/>
<path d="M434.907 161.487C434.336 161.487 433.778 161.318 433.303 161C432.829 160.683 432.459 160.232 432.24 159.704C432.022 159.176 431.965 158.595 432.076 158.034C432.187 157.474 432.462 156.959 432.866 156.555C433.27 156.151 433.784 155.876 434.344 155.764C434.904 155.653 435.484 155.71 436.012 155.928C436.539 156.147 436.99 156.517 437.307 156.993C437.625 157.468 437.794 158.026 437.794 158.598C437.793 159.364 437.489 160.098 436.947 160.64C436.406 161.182 435.673 161.487 434.907 161.487V161.487Z" fill="#FFC000"/>
<path d="M454.536 129.992C453.965 129.992 453.407 129.823 452.932 129.505C452.458 129.188 452.088 128.737 451.869 128.209C451.651 127.681 451.594 127.1 451.705 126.539C451.816 125.979 452.091 125.464 452.495 125.06C452.899 124.656 453.413 124.38 453.973 124.269C454.533 124.157 455.113 124.215 455.641 124.433C456.168 124.652 456.619 125.022 456.936 125.498C457.253 125.973 457.423 126.531 457.423 127.103C457.422 127.869 457.117 128.603 456.576 129.145C456.035 129.687 455.301 129.991 454.536 129.992V129.992ZM454.536 124.791C454.079 124.791 453.633 124.927 453.253 125.181C452.873 125.435 452.577 125.796 452.403 126.218C452.228 126.641 452.182 127.105 452.271 127.554C452.36 128.002 452.58 128.414 452.903 128.737C453.226 129.061 453.638 129.281 454.086 129.37C454.534 129.459 454.998 129.413 455.42 129.238C455.842 129.063 456.202 128.767 456.456 128.387C456.71 128.007 456.845 127.56 456.845 127.103C456.845 126.49 456.601 125.902 456.168 125.469C455.735 125.036 455.148 124.792 454.536 124.791V124.791Z" fill="#FFC000"/>
<path d="M385.835 164.088C385.264 164.088 384.706 163.918 384.231 163.601C383.757 163.284 383.387 162.832 383.168 162.304C382.95 161.776 382.893 161.195 383.004 160.635C383.115 160.074 383.39 159.559 383.794 159.155C384.198 158.751 384.712 158.476 385.272 158.365C385.832 158.253 386.412 158.31 386.94 158.529C387.467 158.748 387.918 159.118 388.235 159.593C388.552 160.068 388.722 160.627 388.722 161.199C388.721 161.965 388.416 162.699 387.875 163.241C387.334 163.782 386.6 164.087 385.835 164.088V164.088ZM385.835 158.887C385.378 158.887 384.932 159.023 384.552 159.277C384.172 159.531 383.876 159.892 383.702 160.314C383.527 160.736 383.481 161.201 383.57 161.649C383.659 162.098 383.879 162.51 384.202 162.833C384.525 163.156 384.937 163.376 385.385 163.466C385.832 163.555 386.297 163.509 386.719 163.334C387.141 163.159 387.501 162.863 387.755 162.483C388.009 162.103 388.144 161.656 388.144 161.199C388.144 160.586 387.9 159.998 387.467 159.565C387.034 159.131 386.447 158.888 385.835 158.887V158.887Z" fill="#FFC000"/>
<path d="M366.206 166.689C365.635 166.689 365.077 166.519 364.602 166.202C364.128 165.884 363.758 165.433 363.539 164.905C363.321 164.377 363.264 163.796 363.375 163.235C363.486 162.675 363.761 162.16 364.165 161.756C364.569 161.352 365.083 161.077 365.643 160.965C366.203 160.854 366.783 160.911 367.311 161.13C367.838 161.348 368.289 161.719 368.606 162.194C368.923 162.669 369.093 163.228 369.093 163.799C369.092 164.565 368.788 165.3 368.246 165.841C367.705 166.383 366.971 166.688 366.206 166.689V166.689ZM366.206 161.488C365.749 161.488 365.303 161.623 364.923 161.877C364.543 162.131 364.248 162.492 364.073 162.915C363.898 163.337 363.852 163.802 363.941 164.25C364.03 164.698 364.25 165.11 364.573 165.434C364.896 165.757 365.308 165.977 365.756 166.066C366.204 166.155 366.668 166.11 367.09 165.935C367.512 165.76 367.873 165.463 368.126 165.083C368.38 164.703 368.515 164.256 368.515 163.799C368.515 163.186 368.271 162.599 367.838 162.165C367.405 161.732 366.818 161.488 366.206 161.488V161.488Z" fill="#FFC000"/>
<path d="M376.021 196.161C375.45 196.161 374.892 195.991 374.417 195.674C373.942 195.356 373.572 194.905 373.354 194.377C373.135 193.849 373.078 193.268 373.189 192.708C373.301 192.147 373.576 191.632 373.98 191.228C374.383 190.824 374.898 190.549 375.457 190.437C376.017 190.326 376.598 190.383 377.125 190.602C377.653 190.82 378.104 191.191 378.421 191.666C378.738 192.141 378.907 192.7 378.907 193.271C378.906 194.037 378.602 194.772 378.061 195.313C377.52 195.855 376.786 196.16 376.021 196.161V196.161Z" fill="#FFC000"/>
<path d="M454.825 96.7638C454.254 96.7638 453.696 96.5943 453.221 96.2768C452.746 95.9593 452.376 95.508 452.158 94.9801C451.939 94.4521 451.882 93.8711 451.994 93.3106C452.105 92.7501 452.38 92.2353 452.784 91.8312C453.187 91.4271 453.702 91.1519 454.262 91.0404C454.822 90.9289 455.402 90.9861 455.929 91.2048C456.457 91.4235 456.908 91.7939 457.225 92.269C457.542 92.7442 457.711 93.3028 457.711 93.8743C457.71 94.6404 457.406 95.3748 456.865 95.9165C456.324 96.4582 455.59 96.7629 454.825 96.7638ZM454.825 91.5628C454.368 91.5628 453.922 91.6983 453.542 91.9523C453.162 92.2063 452.866 92.5673 452.691 92.9897C452.516 93.4121 452.471 93.8769 452.56 94.3253C452.649 94.7737 452.869 95.1856 453.192 95.5088C453.515 95.8321 453.926 96.0523 454.374 96.1415C454.822 96.2306 455.287 96.1849 455.708 96.0099C456.13 95.835 456.491 95.5387 456.745 95.1585C456.999 94.7784 457.134 94.3315 457.134 93.8743C457.133 93.2615 456.89 92.6739 456.457 92.2406C456.024 91.8072 455.437 91.5635 454.825 91.5628V91.5628Z" fill="#FFC000"/>
<path d="M405.464 132.593C404.893 132.593 404.335 132.423 403.86 132.106C403.386 131.788 403.016 131.337 402.797 130.809C402.579 130.281 402.521 129.7 402.633 129.14C402.744 128.579 403.019 128.064 403.423 127.66C403.826 127.256 404.341 126.981 404.901 126.869C405.461 126.758 406.041 126.815 406.569 127.034C407.096 127.253 407.547 127.623 407.864 128.098C408.181 128.573 408.351 129.132 408.351 129.703C408.35 130.469 408.045 131.204 407.504 131.746C406.963 132.287 406.229 132.592 405.464 132.593ZM405.464 127.392C405.007 127.392 404.561 127.527 404.181 127.781C403.801 128.035 403.505 128.396 403.33 128.819C403.156 129.241 403.11 129.706 403.199 130.154C403.288 130.603 403.508 131.015 403.831 131.338C404.154 131.661 404.565 131.881 405.013 131.971C405.461 132.06 405.926 132.014 406.348 131.839C406.77 131.664 407.13 131.368 407.384 130.988C407.638 130.608 407.773 130.161 407.773 129.703C407.773 129.091 407.529 128.503 407.096 128.07C406.663 127.636 406.076 127.393 405.464 127.392V127.392Z" fill="#FFC000"/>
<path d="M395.649 112.078C395.079 112.078 394.52 111.908 394.046 111.591C393.571 111.273 393.201 110.822 392.983 110.294C392.764 109.766 392.707 109.185 392.818 108.625C392.93 108.064 393.205 107.549 393.608 107.145C394.012 106.741 394.526 106.466 395.086 106.354C395.646 106.243 396.227 106.3 396.754 106.519C397.282 106.737 397.732 107.108 398.05 107.583C398.367 108.058 398.536 108.617 398.536 109.188C398.535 109.954 398.231 110.689 397.69 111.23C397.148 111.772 396.415 112.077 395.649 112.078V112.078ZM395.649 106.877C395.193 106.877 394.746 107.012 394.367 107.266C393.987 107.52 393.691 107.881 393.516 108.304C393.341 108.726 393.295 109.191 393.385 109.639C393.474 110.088 393.694 110.5 394.017 110.823C394.34 111.146 394.751 111.366 395.199 111.455C395.647 111.545 396.111 111.499 396.533 111.324C396.955 111.149 397.316 110.853 397.57 110.472C397.823 110.092 397.959 109.645 397.959 109.188C397.958 108.575 397.715 107.988 397.282 107.555C396.849 107.121 396.262 106.877 395.649 106.877V106.877Z" fill="#FFC000"/>
<path d="M346.577 197.605C346.006 197.605 345.448 197.436 344.974 197.119C344.499 196.801 344.129 196.35 343.91 195.822C343.692 195.294 343.635 194.713 343.746 194.152C343.858 193.592 344.133 193.077 344.536 192.673C344.94 192.269 345.454 191.994 346.014 191.882C346.574 191.771 347.155 191.828 347.682 192.047C348.209 192.265 348.66 192.636 348.977 193.111C349.295 193.586 349.464 194.145 349.464 194.716C349.463 195.482 349.159 196.217 348.617 196.758C348.076 197.3 347.343 197.605 346.577 197.605V197.605ZM346.577 192.405C346.121 192.405 345.674 192.54 345.294 192.794C344.915 193.048 344.619 193.409 344.444 193.831C344.269 194.254 344.223 194.719 344.312 195.167C344.402 195.615 344.621 196.027 344.944 196.351C345.267 196.674 345.679 196.894 346.127 196.983C346.575 197.072 347.039 197.027 347.461 196.852C347.883 196.677 348.244 196.38 348.497 196C348.751 195.62 348.887 195.173 348.887 194.716C348.886 194.103 348.642 193.516 348.209 193.082C347.777 192.649 347.19 192.405 346.577 192.405V192.405Z" fill="#FFC000"/>
<path d="M522.66 163.799H522.082V188.919H522.66V163.799Z" fill="#FFC000"/>
<path d="M522.66 200.386H522.082V218.987H522.66V200.386Z" fill="#FFC000"/>
<path d="M522.371 197.605C521.8 197.605 521.242 197.436 520.767 197.119C520.293 196.801 519.923 196.35 519.704 195.822C519.486 195.294 519.429 194.713 519.54 194.152C519.651 193.592 519.926 193.077 520.33 192.673C520.734 192.269 521.248 191.994 521.808 191.882C522.368 191.771 522.948 191.828 523.476 192.047C524.003 192.265 524.454 192.636 524.771 193.111C525.088 193.586 525.258 194.145 525.258 194.716C525.257 195.482 524.952 196.217 524.411 196.758C523.87 197.3 523.136 197.605 522.371 197.605V197.605ZM522.371 192.405C521.914 192.405 521.468 192.54 521.088 192.794C520.708 193.048 520.412 193.409 520.238 193.831C520.063 194.254 520.017 194.719 520.106 195.167C520.195 195.615 520.415 196.027 520.738 196.351C521.061 196.674 521.473 196.894 521.921 196.983C522.369 197.072 522.833 197.027 523.255 196.852C523.677 196.677 524.037 196.38 524.291 196C524.545 195.62 524.68 195.173 524.68 194.716C524.68 194.103 524.436 193.516 524.003 193.082C523.57 192.649 522.983 192.405 522.371 192.405V192.405Z" fill="#FFC000"/>
<path d="M503.608 174.779C503.037 174.779 502.479 174.609 502.005 174.292C501.53 173.974 501.16 173.523 500.941 172.995C500.723 172.467 500.666 171.886 500.777 171.326C500.888 170.765 501.163 170.25 501.567 169.846C501.971 169.442 502.485 169.167 503.045 169.056C503.605 168.944 504.185 169.001 504.713 169.22C505.24 169.439 505.691 169.809 506.008 170.284C506.326 170.759 506.495 171.318 506.495 171.889C506.494 172.656 506.19 173.39 505.648 173.932C505.107 174.473 504.374 174.778 503.608 174.779V174.779ZM503.608 169.578C503.152 169.578 502.705 169.713 502.325 169.967C501.946 170.221 501.65 170.582 501.475 171.005C501.3 171.427 501.254 171.892 501.343 172.34C501.432 172.789 501.652 173.201 501.975 173.524C502.298 173.847 502.71 174.067 503.158 174.157C503.606 174.246 504.07 174.2 504.492 174.025C504.914 173.85 505.275 173.554 505.528 173.174C505.782 172.794 505.918 172.347 505.918 171.889C505.917 171.277 505.673 170.689 505.24 170.256C504.807 169.822 504.22 169.579 503.608 169.578V169.578Z" fill="#FFC000"/>
<path d="M483.979 208.007C483.408 208.007 482.85 207.838 482.376 207.52C481.901 207.203 481.531 206.752 481.313 206.224C481.094 205.696 481.037 205.115 481.148 204.554C481.26 203.994 481.535 203.479 481.938 203.075C482.342 202.671 482.856 202.396 483.416 202.284C483.976 202.173 484.557 202.23 485.084 202.448C485.611 202.667 486.062 203.038 486.379 203.513C486.697 203.988 486.866 204.546 486.866 205.118C486.865 205.884 486.561 206.618 486.02 207.16C485.478 207.702 484.745 208.007 483.979 208.007V208.007ZM483.979 202.806C483.523 202.806 483.076 202.942 482.696 203.196C482.317 203.45 482.021 203.811 481.846 204.233C481.671 204.656 481.625 205.121 481.714 205.569C481.804 206.017 482.024 206.429 482.346 206.752C482.669 207.076 483.081 207.296 483.529 207.385C483.977 207.474 484.441 207.429 484.863 207.254C485.285 207.079 485.646 206.782 485.899 206.402C486.153 206.022 486.289 205.575 486.289 205.118C486.288 204.505 486.044 203.918 485.612 203.484C485.179 203.051 484.592 202.807 483.979 202.806V202.806Z" fill="#FFC000"/>
<path d="M425.093 120.746C424.522 120.746 423.964 120.577 423.489 120.259C423.014 119.942 422.644 119.49 422.426 118.962C422.207 118.435 422.15 117.854 422.262 117.293C422.373 116.733 422.648 116.218 423.052 115.814C423.455 115.409 423.97 115.134 424.53 115.023C425.09 114.911 425.67 114.969 426.197 115.187C426.725 115.406 427.176 115.776 427.493 116.251C427.81 116.727 427.979 117.285 427.979 117.857C427.978 118.623 427.674 119.357 427.133 119.899C426.592 120.441 425.858 120.745 425.093 120.746V120.746Z" fill="#FFC000"/>
<path d="M483.979 147.04C483.408 147.04 482.85 146.871 482.376 146.553C481.901 146.236 481.531 145.784 481.313 145.256C481.094 144.728 481.037 144.147 481.148 143.587C481.26 143.026 481.535 142.512 481.938 142.108C482.342 141.703 482.856 141.428 483.416 141.317C483.976 141.205 484.557 141.262 485.084 141.481C485.611 141.7 486.062 142.07 486.379 142.545C486.697 143.021 486.866 143.579 486.866 144.151C486.865 144.917 486.561 145.651 486.02 146.193C485.478 146.735 484.745 147.039 483.979 147.04V147.04ZM483.979 141.839C483.523 141.839 483.076 141.975 482.696 142.229C482.317 142.483 482.021 142.844 481.846 143.266C481.671 143.688 481.625 144.153 481.714 144.602C481.804 145.05 482.024 145.462 482.346 145.785C482.669 146.108 483.081 146.329 483.529 146.418C483.977 146.507 484.441 146.461 484.863 146.286C485.285 146.111 485.646 145.815 485.899 145.435C486.153 145.055 486.289 144.608 486.289 144.151C486.288 143.538 486.044 142.95 485.612 142.517C485.179 142.084 484.592 141.84 483.979 141.839V141.839Z" fill="#FFC000"/>
<path d="M503.608 138.661C503.037 138.661 502.479 138.491 502.005 138.174C501.53 137.856 501.16 137.405 500.941 136.877C500.723 136.349 500.666 135.768 500.777 135.208C500.888 134.647 501.163 134.132 501.567 133.728C501.971 133.324 502.485 133.049 503.045 132.937C503.605 132.826 504.185 132.883 504.713 133.102C505.24 133.32 505.691 133.691 506.008 134.166C506.326 134.641 506.495 135.2 506.495 135.771C506.494 136.537 506.19 137.272 505.648 137.813C505.107 138.355 504.374 138.66 503.608 138.661V138.661Z" fill="#FFC000"/>
<path d="M474.165 137.216C473.594 137.216 473.036 137.046 472.561 136.729C472.087 136.411 471.717 135.96 471.498 135.432C471.28 134.904 471.222 134.323 471.334 133.763C471.445 133.202 471.72 132.687 472.124 132.283C472.528 131.879 473.042 131.604 473.602 131.493C474.162 131.381 474.742 131.438 475.27 131.657C475.797 131.876 476.248 132.246 476.565 132.721C476.882 133.196 477.052 133.755 477.052 134.326C477.051 135.093 476.746 135.827 476.205 136.369C475.664 136.91 474.93 137.215 474.165 137.216V137.216Z" fill="#FFC000"/>
<path d="M554.99 137.221L503.315 136.349L503.325 135.771L554.412 136.633V111.789H554.99V137.221Z" fill="#2F2E41"/>
<path d="M474.431 134.438L473.898 134.215L501.107 69.0249H544.598V69.6028H501.491L474.431 134.438Z" fill="#2F2E41"/>
<path d="M435.196 158.887H305.01V127.392H305.588V158.309H435.196V158.887Z" fill="#2F2E41"/>
<path d="M425.093 118.146H338.784V82.8945H339.361V117.568H425.093V118.146Z" fill="#2F2E41"/>
<path d="M376.309 246.437H318.866V245.859H375.732V192.982H376.309V246.437Z" fill="#2F2E41"/>
</svg>
