<svg fill="none" height="125" viewBox="0 0 125 125" width="125" xmlns="http://www.w3.org/2000/svg"><g fill="#000"><path clip-rule="evenodd" d="m67.3728 65.4586c3.023 4.5024 8.66 7.2294 14.4798 7.0972 5.668-.129 10.8882-3.6178 13.826-8.3036 2.882-4.5942 3.1454-11.3603.6104-16.1566-2.5876-4.8973-7.6962-8.7359-13.1612-9.3282-5.2635-.5706-9.7105 2.2745-15.5025 2.8544-5.7919.5815-12.1076-1.1644-15.5396-4.4977-.7128-.6934-1.5573-1.393-2.3103-2.7161-.6973-1.2267-.815-2.8778.2417-3.9334.9715-.9717 2.7689-.9048 3.9341-.1539 1.1931.7696 1.8687 1.4008 2.4017 1.8812 2.9982 2.7021 7.5103 4.1091 11.5064 3.5882 2.9409-.384 5.7331-1.5842 8.9467-2.2123 3.2136-.6297 6.8548-.6965 9.7074.0187 5.6711 1.4225 8.4013 4.8413 11.164 7.6771 2.4926 2.559 6.8916 3.3861 10.3876 2.5668 3.644-.8535 6.598-3.7981 7.919-7.2185 1.297-3.3597.651-7.7766-1.554-10.6217-2.18-2.8141-5.866-4.7668-9.65-4.6315-3.11.1119-5.3827 1.7599-7.9393 3.2276-2.5102 1.4412-5.4278 3.0814-7.9349 2.3724-2.7116-.7649-4.5214-3.7499-6.2785-6.9573-1.7679-3.2306-3.3329-6.9526-5.7222-9.5723-3.2988-3.61469-9.0938-5.02947-13.9189-4.21636-4.839.81467-9.458 4.97666-10.9098 9.64076-.5238 1.6791-1.8966 8.0611-5.8509 9.5381-1.9585.7323-4.5384.37-6.6038-.667-2.0407-1.0245-3.5793-2.5777-4.4811-3.2991-4.323-3.4576-10.9548-4.1681-16.1858-2.3538-5.1923 1.8019-9.34953 7.1144-10.59531 12.4999-1.24267 5.3684.82742 11.9354 4.91031 15.6512 3.9713 3.6131 10.2993 5.4041 15.8217 4.1542 3.353-.7587 6.2722-3.0675 10.1986-4.3128 3.838-1.2173 8.784-1.5671 13.0295-.1213 4.2053 1.4319 7.7195 4.8632 9.9678 8.3597 2.2359 3.4763 3.0556 7.1221 5.0854 10.146z" fill-rule="evenodd"/><path clip-rule="evenodd" d="m57.6297 59.5414c-3.023-4.5024-8.66-7.2294-14.4798-7.0972-5.668.129-10.8882 3.6178-13.826 8.3036-2.882 4.5942-3.1454 11.3603-.6104 16.1566 2.5876 4.8973 7.6962 8.7359 13.1612 9.3282 5.2636.5706 9.7105-2.2745 15.5025-2.8544 5.7919-.5815 12.1076 1.1644 15.5397 4.4977.7127.6934 1.5572 1.393 2.3102 2.7161.6973 1.2267.815 2.8778-.2417 3.9334-.9715.9717-2.7689.9048-3.9341.1539-1.1931-.7696-1.8687-1.4008-2.4017-1.8812-2.9982-2.7021-7.5103-4.1091-11.5064-3.5882-2.9409.384-5.7331 1.5842-8.9467 2.2123-3.2136.6297-6.8548.6965-9.7074-.0187-5.6711-1.4225-8.4013-4.8413-11.164-7.6771-2.4931-2.559-6.892-3.3861-10.3876-2.5668-3.6444.8535-6.5977 3.7981-7.91941 7.2185-1.29691 3.3597-.65078 7.7766 1.55411 10.6217 2.1801 2.8142 5.8663 4.7672 9.6501 4.6312 3.1098-.112 5.3829-1.76 7.9395-3.227 2.5102-1.4415 5.4278-3.0817 7.9349-2.3727 2.7116.7649 4.5214 3.7497 6.2785 6.9577 1.7679 3.23 3.3329 6.952 5.7222 9.572 3.2988 3.615 9.0938 5.029 13.9189 4.216 4.839-.814 9.458-4.976 10.9098-9.64.5238-1.68 1.8966-8.062 5.8509-9.5386 1.9585-.7323 4.5384-.37 6.6038.6666 2.0407 1.025 3.5793 2.578 4.4811 3.299 4.323 3.458 10.9551 4.169 16.1861 2.354 5.192-1.802 9.349-7.1141 10.595-12.4996 1.243-5.3684-.827-11.9354-4.91-15.6512-3.972-3.6131-10.3-5.4041-15.822-4.1542-3.353.7587-6.2722 3.0675-10.1986 4.3128-3.838 1.2173-8.784 1.5671-13.0295.1213-4.2053-1.4319-7.7195-4.8632-9.9678-8.3597-2.2359-3.4763-3.0556-7.1221-5.0854-10.146z" fill-rule="evenodd"/><ellipse cx="12.5712" cy="65.953" rx="10.0712" ry="10.1052"/><ellipse cx="112.429" cy="59.07" rx="10.0712" ry="10.1052"/></g></svg>