<svg width="367" height="262" xmlns="http://www.w3.org/2000/svg" data-name="Layer 1">
 <title>online_transactions</title>

 <g>
  <title>Layer 1</title>
  <rect id="svg_1" fill="#ffc000" height="234.16998" width="343.71997" y="27.39" x="-0.00001"/>
  <path id="svg_2" fill="#3f3d56" d="m362.89001,0l-338.23999,0a4.11628,4.11628 0 0 0 -4.11005,4.10995l0,228.69a4.10986,4.10986 0 0 0 4.11005,4.11005l338.23999,0a4.10984,4.10984 0 0 0 4.10999,-4.11005l0,-228.69a4.11626,4.11626 0 0 0 -4.10999,-4.10995zm1.37,232.79996a1.36568,1.36568 0 0 1 -1.37,1.37l-338.23999,0a1.36569,1.36569 0 0 1 -1.37,-1.37l0,-228.69a1.37207,1.37207 0 0 1 1.37,-1.37l338.23999,0a1.37206,1.37206 0 0 1 1.37,1.37l0,228.69z"/>
  <rect id="svg_3" fill="#3f3d56" rx="2" height="17.80224" width="154.74254" y="161.59174" x="38.34328"/>
  <path id="svg_4" fill="#3f3d56" d="m334.12994,146.52994l-49.28998,0a4.10991,4.10991 0 0 0 -4.11005,4.10999l0,38.34006a4.10986,4.10986 0 0 0 4.11005,4.10995l49.28998,0a4.1098,4.1098 0 0 0 4.10999,-4.10995l0,-38.34006a4.10985,4.10985 0 0 0 -4.10999,-4.10999zm1.37,42.45004a1.37206,1.37206 0 0 1 -1.37,1.36996l-49.28998,0a1.37212,1.37212 0 0 1 -1.37006,-1.36996l0,-38.34006a1.36574,1.36574 0 0 1 1.37006,-1.37l49.28998,0a1.36568,1.36568 0 0 1 1.37,1.37l0,38.34006z"/>
  <rect id="svg_5" fill="#3f3d56" rx="2" height="6.95235" width="33.60304" y="155.37676" x="292.68355"/>
  <rect id="svg_6" fill="#3f3d56" rx="2" height="6.95235" width="33.60304" y="166.33199" x="292.68355"/>
  <rect id="svg_7" fill="#3f3d56" rx="2" height="6.95235" width="33.60304" y="177.28721" x="292.68355"/>
  <rect id="svg_8" fill="#3f3d56" rx="2" height="30.12687" width="71.20896" y="16.43503" x="42.45149"/>
  <path id="svg_9" fill="#ffc000" d="m83.53357,31.49847c0,5.2941 -2.45242,9.58585 -5.4776,9.58585s-5.47763,-4.29175 -5.47763,-9.58585s5.47763,-9.58585 5.47763,-9.58585s5.4776,4.29175 5.4776,9.58585z"/>
 </g>
</svg>