<svg width="729" height="384" xmlns="http://www.w3.org/2000/svg" data-name="Layer 1">

 <g>
  <title>Layer 1</title>
  <rect stroke="null" id="svg_12" opacity="0.3" fill="#fff" height="3.96111" width="728.84647" y="211.92004" x="0.00011"/>
  <rect stroke="null" id="svg_13" opacity="0.3" fill="#fff" height="3.96111" width="728.84647" y="255.49239" x="0.00011"/>
  <rect stroke="null" id="svg_14" opacity="0.3" fill="#fff" height="3.96111" width="728.84647" y="299.06473" x="0.00011"/>
  <path stroke="null" id="svg_15" opacity="0.3" fill="#fff" d="m728.01465,342.63708c-0.198,1.34665 -0.51495,2.6539 -0.83173,3.96106l-726.62818,0a32.7452,32.7452 0 0 1 -0.47531,-3.96106l727.93522,0z"/>
  <g stroke="null" id="svg_16" opacity="0.1">
   <path stroke="null" id="svg_17" d="m728.84662,272.36679l0,61.31805a47.63334,47.63334 0 0 1 -0.83197,8.95224c-0.198,1.34665 -0.51495,2.65384 -0.83173,3.96106c-0.35657,1.34665 -0.7923,2.69357 -1.22784,4.00079c-0.27734,0.71298 -0.51508,1.42599 -0.83197,2.0993c-0.11865,0.3566 -0.27722,0.67334 -0.43567,1.02991c-0.35663,0.87134 -0.75262,1.70328 -1.18835,2.53516c0,0.03964 0,0.0791 -0.03955,0.0791c-0.23767,0.47528 -0.47534,0.95084 -0.71301,1.38654c-0.47528,0.87134 -0.99036,1.74289 -1.50525,2.57458c-0.63385,1.02991 -1.26758,1.98056 -1.98059,2.93137a17.735,17.735 0 0 1 -1.30719,1.70328c-0.39606,0.51498 -0.83185,1.02997 -1.22791,1.54468a16.4321,16.4321 0 0 1 -1.38635,1.50525a11.20691,11.20691 0 0 1 -0.95087,1.02997c-0.63373,0.63385 -1.26733,1.26755 -1.9408,1.86182a6.0807,6.0807 0 0 1 -0.75275,0.67334c-0.43561,0.396 -0.91089,0.79221 -1.38623,1.18823c-0.23767,0.19803 -0.51501,0.4357 -0.7923,0.63394c-0.198,0.15839 -0.396,0.31674 -0.63373,0.51498l-0.03961,0a30.29033,30.29033 0 0 1 -2.69348,1.90125a0.03884,0.03884 0 0 1 -0.03973,0.03967c-0.03955,0 -0.03955,0.03961 -0.07922,0.07901c-0.5545,0.3963 -1.14862,0.75266 -1.74298,1.10922c-0.31683,0.19803 -0.63361,0.35641 -0.95056,0.51505a0.83269,0.83269 0 0 1 -0.23773,0.15836c-0.35663,0.19794 -0.67334,0.39624 -1.02991,0.55453c-0.91089,0.47531 -1.8219,0.95062 -2.77283,1.38626a35.41792,35.41792 0 0 1 -3.36682,1.38654a0.2057,0.2057 0 0 1 -0.15833,0.07907a6.24481,6.24481 0 0 1 -0.7923,0.27725c-0.51501,0.198 -1.06964,0.3963 -1.58459,0.5545c-0.396,0.11902 -0.75256,0.19803 -1.14862,0.31699c-0.83191,0.27725 -1.70319,0.47531 -2.57483,0.67334a4.57332,4.57332 0 0 1 -0.71301,0.15839c-0.43561,0.1189 -0.87134,0.19818 -1.30713,0.27719a0.1454,0.1454 0 0 0 -0.11877,0.03967a0.78319,0.78319 0 0 0 -0.3963,0.07935a0.67242,0.67242 0 0 0 -0.27698,0.03964c-0.67365,0.11865 -1.38654,0.19794 -2.09949,0.31665c-0.39606,0.03967 -0.83197,0.07938 -1.26764,0.11902a0.35605,0.35605 0 0 1 -0.198,0.03964c-0.43561,0.03964 -0.83197,0.07907 -1.22791,0.11874l-0.07935,0c-0.43567,0.03961 -0.87128,0.03961 -1.30707,0.07928c-0.7923,0.03961 -1.58447,0.03961 -2.37671,0.03961l-627.75864,0a50.70634,50.70634 0 0 1 -48.88032,-37.63065l-1.10904,0a32.7452,32.7452 0 0 1 -0.47537,-3.96115c-0.03964,-0.75256 -0.07928,-1.54489 -0.07928,-2.29749l0,-69.08173a94.19893,94.19893 0 0 1 24.51931,4.00079c21.54849,6.57532 42.50274,17.70609 65.0019,17.70609c1.78257,0 3.64441,-0.0791 5.46634,-0.23767c23.6877,-1.98056 42.1068,-16.67618 57.43629,-33.27325c1.22797,-1.30728 2.45589,-2.61447 3.60475,-3.96115c2.89154,-3.2085 5.66443,-6.49628 8.35796,-9.74443a213.2496,213.2496 0 0 1 28.79759,-29.86678c1.70328,-1.38654 3.40648,-2.69356 5.1494,-3.96115a73.16092,73.16092 0 0 1 34.9371,-13.98285c1.62399,-0.15836 3.24818,-0.27731 4.8721,-0.31674c16.95375,-0.51492 32.87726,5.58507 47.37512,14.29959c2.09927,1.26759 4.1987,2.57462 6.21899,3.96115a236.5499,236.5499 0 0 1 20.0036,15.17093a382.41736,382.41736 0 0 0 30.89667,24.44028c0.79233,0.5545 1.58456,1.10904 2.37659,1.58429c1.22794,0.83194 2.49551,1.6243 3.76306,2.37686a91.54546,91.54546 0 0 0 35.80872,13.50726c0.43573,0.07928 0.91104,0.15863 1.38632,0.19803c20.6376,2.4165 39.84897,-3.68381 57.39667,-13.70529c2.17856,-1.26761 4.39679,-2.57486 6.53592,-3.96115a270.65808,270.65808 0 0 0 38.38324,-30.8967c3.08954,-2.89182 6.21912,-5.82298 9.46695,-8.71451c1.46588,-1.30725 2.93149,-2.65419 4.43668,-3.96115c23.52881,-20.67715 50.66266,-39.61121 82.70801,-39.61121c1.34692,0 2.73322,0.03964 4.11969,0.11871c23.05371,1.10918 43.29498,12.27959 60.28815,26.46027a184.91414,184.91414 0 0 1 14.14124,13.03223c0.198,0.19803 0.35657,0.35638 0.5545,0.55453c1.10907,1.10904 2.21814,2.2576 3.24823,3.40645c12.6756,13.26971 24.36072,27.45056 38.14551,39.61128c1.50531,1.38632 3.04999,2.69354 4.63446,3.96112a129.35223,129.35223 0 0 0 15.05225,10.77414c1.22803,0.75269 2.49567,1.46573 3.76331,2.13922z"/>
  </g>
  <g stroke="null" id="svg_18" opacity="0.1">
   <path stroke="null" id="svg_19" d="m728.84662,212.5141l0,121.17068a47.63334,47.63334 0 0 1 -0.83197,8.95224c-0.198,1.34665 -0.51495,2.65381 -0.83173,3.96106c-0.35657,1.34665 -0.7923,2.69354 -1.22784,4.00079c-0.27734,0.71298 -0.51508,1.42599 -0.83197,2.0993c-0.11865,0.3566 -0.27722,0.67334 -0.43567,1.02991c-0.35663,0.87131 -0.75262,1.70325 -1.18835,2.53516c0,0.03964 0,0.0791 -0.03955,0.0791c-0.23767,0.47528 -0.47534,0.95084 -0.71301,1.38654c-0.47528,0.87131 -0.99036,1.74289 -1.50525,2.57458c-0.63385,1.02991 -1.26758,1.98056 -1.98059,2.93137a17.735,17.735 0 0 1 -1.30719,1.70328c-0.39606,0.51495 -0.83185,1.02997 -1.22791,1.54468a16.4321,16.4321 0 0 1 -1.38635,1.50522a11.20691,11.20691 0 0 1 -0.95087,1.02997c-0.63373,0.63388 -1.26733,1.26758 -1.9408,1.86185a6.0807,6.0807 0 0 1 -0.75275,0.67334c-0.43561,0.396 -0.91089,0.79221 -1.38623,1.18823c-0.23767,0.19803 -0.51501,0.4357 -0.7923,0.63394c-0.198,0.15839 -0.396,0.31674 -0.63373,0.51498l-0.03961,0a30.29033,30.29033 0 0 1 -2.69348,1.90125a0.03884,0.03884 0 0 1 -0.03973,0.03967c-0.03955,0 -0.03955,0.03961 -0.07922,0.07901c-0.5545,0.3963 -1.14862,0.75266 -1.74298,1.10922c-0.31683,0.19803 -0.63361,0.35638 -0.95056,0.51505a0.83269,0.83269 0 0 1 -0.23773,0.15836c-0.35663,0.19794 -0.67334,0.39624 -1.02991,0.55453c-0.91089,0.47531 -1.8219,0.95062 -2.77283,1.38626a35.41792,35.41792 0 0 1 -3.36682,1.38654a0.2057,0.2057 0 0 1 -0.15833,0.07907a6.24481,6.24481 0 0 1 -0.7923,0.27725c-0.51501,0.198 -1.06964,0.3963 -1.58459,0.5545c-0.396,0.11899 -0.75256,0.19803 -1.14862,0.31699c-0.83191,0.27725 -1.70319,0.47531 -2.57483,0.67334a4.57332,4.57332 0 0 1 -0.71301,0.15839c-0.43561,0.1189 -0.87134,0.19818 -1.30713,0.27719a0.1454,0.1454 0 0 0 -0.11877,0.03967a0.78319,0.78319 0 0 0 -0.3963,0.07935a0.67242,0.67242 0 0 0 -0.27698,0.03961c-0.67365,0.11868 -1.38654,0.19797 -2.09949,0.31668c-0.39606,0.03967 -0.83197,0.07935 -1.26764,0.11902a0.35605,0.35605 0 0 1 -0.198,0.03961c-0.19806,0 -0.43561,0.03967 -0.63361,0.03967a3.01538,3.01538 0 0 1 -0.5943,0.03928a2.09076,2.09076 0 0 1 -0.51501,0.03967l-0.19806,0c-0.198,0.03961 -0.43555,0.03961 -0.67334,0.07928c-0.7923,0.03961 -1.58447,0.03961 -2.37671,0.03961l-627.75864,0a50.70634,50.70634 0 0 1 -48.88032,-37.63065c-0.31674,-1.30725 -0.63374,-2.61447 -0.83169,-3.96112a47.63334,47.63334 0 0 1 -0.83195,-8.95218l0,-70.54715c1.38634,-1.18829 2.73317,-2.41623 4.08007,-3.68381c1.38634,-1.30728 2.73297,-2.61447 4.0798,-3.96109a303.9715,303.9715 0 0 0 32.12465,-39.61127c0.31701,-0.43567 0.63395,-0.83188 0.91124,-1.26755c0.63367,-0.91106 1.26735,-1.78256 1.94086,-2.69354a311.29242,311.29242 0 0 1 32.12465,-39.61127c1.34682,-1.34683 2.69353,-2.65411 4.08006,-3.96109c14.73527,-13.86392 31.53036,-24.20245 51.33601,-26.65851c27.29218,-3.40654 52.68282,9.22946 75.14255,26.65851c1.66362,1.30698 3.28757,2.61426 4.91182,3.96109c7.68454,6.25845 14.9729,13.07169 21.86523,19.84528c1.82217,1.82201 3.68402,3.6442 5.54559,5.4664c4.79311,4.79274 9.70485,9.58588 14.65625,14.29959c1.4259,1.34662 2.81247,2.6539 4.23842,3.96109c19.80557,18.34 41.23514,34.46179 66.70511,39.61127c1.74295,0.35632 3.52548,0.67331 5.30804,0.91098a88.67239,88.67239 0 0 0 28.91617,-0.91098c1.58456,-0.27728 3.12921,-0.63397 4.71378,-1.02994c23.84604,-5.90204 45.94891,-20.75626 65.95279,-38.58133c1.4259,-1.30719 2.89151,-2.61447 4.31744,-3.96109c10.21979,-9.46713 19.92462,-19.60764 28.99548,-29.58969c3.01044,-3.32721 6.10004,-6.6944 9.18982,-10.02158c1.26758,-1.30721 2.49551,-2.61446 3.72348,-3.96109a334.74799,334.74799 0 0 1 43.33463,-39.61122c1.86163,-1.38659 3.72357,-2.69352 5.58514,-3.96113c20.95453,-14.29958 43.84961,-23.48941 69.00293,-22.02391c20.75616,1.18831 39.72986,9.74422 56.80237,22.02391c1.74292,1.26761 3.48584,2.57454 5.22876,3.96113a237.30797,237.30797 0 0 1 35.37268,35.13513c1.22803,1.46556 2.45599,2.97081 3.68384,4.47609c0.63385,0.75262 1.22791,1.54491 1.86194,2.29724l1.30688,1.66385c10.49707,13.11133 20.5979,26.73761 31.3327,39.61127l0.47534,0.59406z"/>
  </g>
  <g stroke="null" id="svg_20" opacity="0.1">
   <path stroke="null" id="svg_21" d="m728.84662,162.48508l0,171.19977a47.63334,47.63334 0 0 1 -0.83197,8.95224c-0.198,1.34665 -0.51495,2.65384 -0.83173,3.96106c-0.35657,1.34665 -0.7923,2.69357 -1.22784,4.00079c-0.27734,0.71298 -0.51508,1.42599 -0.83197,2.0993c-0.11865,0.3566 -0.27722,0.67334 -0.43567,1.02991c-0.35663,0.87134 -0.75262,1.70328 -1.18835,2.53516c0,0.03964 0,0.0791 -0.03955,0.0791c-0.23767,0.47528 -0.47534,0.95084 -0.71301,1.38654c-0.47528,0.87134 -0.99036,1.74289 -1.50525,2.57458c-0.63385,1.02991 -1.26758,1.98056 -1.98059,2.93137a17.735,17.735 0 0 1 -1.30719,1.70328c-0.39606,0.51498 -0.83185,1.02997 -1.22791,1.54468a16.4321,16.4321 0 0 1 -1.38635,1.50525a11.20691,11.20691 0 0 1 -0.95087,1.02997c-0.63373,0.63385 -1.26733,1.26755 -1.9408,1.86182a6.0807,6.0807 0 0 1 -0.75275,0.67334c-0.43561,0.396 -0.91089,0.79221 -1.38623,1.18823c-0.23767,0.19803 -0.51501,0.4357 -0.7923,0.63394c-0.198,0.15839 -0.396,0.31674 -0.63373,0.51498l-0.03961,0a30.29033,30.29033 0 0 1 -2.69348,1.90125a0.03884,0.03884 0 0 1 -0.03973,0.03967c-0.03955,0 -0.03955,0.03961 -0.07922,0.07901c-0.5545,0.3963 -1.14862,0.75266 -1.74298,1.10922c-0.31683,0.19803 -0.63361,0.35641 -0.95056,0.51505a0.83269,0.83269 0 0 1 -0.23773,0.15836c-0.35663,0.19794 -0.67334,0.39624 -1.02991,0.55453c-0.91089,0.47531 -1.8219,0.95062 -2.77283,1.38626a35.41792,35.41792 0 0 1 -3.36682,1.38654a0.2057,0.2057 0 0 1 -0.15833,0.07907a6.24481,6.24481 0 0 1 -0.7923,0.27725c-0.51501,0.198 -1.06964,0.3963 -1.58459,0.5545c-0.396,0.11902 -0.75256,0.19803 -1.14862,0.31699c-0.83191,0.27725 -1.70319,0.47531 -2.57483,0.67334a4.57332,4.57332 0 0 1 -0.71301,0.15839c-0.43561,0.1189 -0.87134,0.19818 -1.30713,0.27719a0.1454,0.1454 0 0 0 -0.11877,0.03967a0.78319,0.78319 0 0 0 -0.3963,0.07935a0.67242,0.67242 0 0 0 -0.27698,0.03964c-0.67365,0.11865 -1.38654,0.19794 -2.09949,0.31665c-0.39606,0.03967 -0.83197,0.07938 -1.26764,0.11902a0.35605,0.35605 0 0 1 -0.198,0.03964c-0.19806,0 -0.43561,0.03964 -0.63361,0.03964a3.01538,3.01538 0 0 1 -0.5943,0.03931a0.13841,0.13841 0 0 1 -0.07935,0.03964l-0.63373,0c-0.99017,0.07928 -2.0202,0.11893 -3.05005,0.11893l-627.75864,0a50.70634,50.70634 0 0 1 -48.88032,-37.63068c-0.31674,-1.30722 -0.63374,-2.61447 -0.83169,-3.96112a47.63334,47.63334 0 0 1 -0.83195,-8.95218l0,-102.27583q6.00114,-7.7836 12.04173,-15.52754c1.02996,-1.34691 2.05985,-2.65413 3.08974,-3.96109c5.42677,-6.97162 10.89311,-13.86392 16.51788,-20.59789c5.38706,-6.45665 11.05167,-12.83403 16.95368,-19.01332c1.26761,-1.30717 2.53496,-2.65408 3.84221,-3.96115a220.17491,220.17491 0 0 1 51.21733,-39.61122c2.57487,-1.4259 5.18905,-2.73316 7.8432,-3.96113a122.39354,122.39354 0 0 1 44.80025,-11.68533a124.41918,124.41918 0 0 1 59.1792,11.68533c2.77267,1.18834 5.50577,2.53523 8.19931,3.96113c19.36996,9.98189 37.55159,23.9648 54.58437,39.61122c1.46561,1.26761 2.8519,2.61426 4.27808,3.96115c13.50735,12.67566 26.30167,26.2623 38.50204,39.61121c0.91116,0.99033 1.82217,2.02023 2.73315,3.01056c0.27722,0.31665 0.59424,0.63362 0.87152,0.95059c11.88342,13.07167 24.55884,26.30194 38.02661,38.58133c0.35654,0.35629 0.75266,0.67331 1.14859,1.02988c1.46564,1.34668 2.93146,2.65387 4.43646,3.96115c5.30801,4.71371 10.77435,9.22925 16.32007,13.50732a212.37984,212.37984 0 0 0 42.6611,26.10388c3.20847,1.46561 6.4567,2.77286 9.74442,3.96112a117.14561,117.14561 0 0 0 56.88171,6.73398a113.32944,113.32944 0 0 0 25.78693,-6.73398c3.16882,-1.18826 6.25867,-2.53516 9.30847,-3.96112c20.08295,-9.50677 38.22491,-23.88571 55.41638,-39.61121c1.42596,-1.30728 2.85187,-2.61447 4.27789,-3.96115c9.78406,-9.18982 19.29053,-18.73627 28.67847,-27.96553c3.96112,-3.88203 8.00153,-7.80353 12.16058,-11.64568c1.42615,-1.30725 2.89178,-2.61444 4.35742,-3.96115c4.99103,-4.47609 10.1405,-8.87283 15.44812,-13.03223a198.43669,198.43669 0 0 1 42.46338,-26.57898c1.30707,-0.59424 2.65399,-1.1489 3.96118,-1.66383c2.02014,-0.83183 4.04016,-1.58427 6.0603,-2.29732a106.22669,106.22669 0 0 1 27.05475,-5.86261z"/>
  </g>
  <circle stroke="null" id="svg_22" fill="#fff" r="11.88336" cy="124.77537" cx="156.46443"/>
  <circle stroke="null" id="svg_23" fill="#fff" r="11.88336" cy="255.49239" cx="338.67604"/>
  <circle stroke="null" id="svg_24" fill="#fff" r="11.88336" cy="168.3477" cx="584.26562"/>
 </g>
</svg>