<svg width="704" height="451" xmlns="http://www.w3.org/2000/svg" data-name="Layer 1">

 <g>
  <title>Layer 1</title>
  <rect id="svg_1" fill="#e6e6e6" height="450.60114" width="703.57562" y="0.39886" x="0.30042"/>
  <rect id="svg_2" fill="#fff" height="171.77293" width="663.33851" y="56.91548" x="20.419"/>
  <rect id="svg_3" fill="#e6e6e6" height="8.05267" width="140.28123" y="81.72713" x="185.4182"/>
  <rect id="svg_4" fill="#ffc000" height="8.05267" width="216.62477" y="111.10108" x="185.4182"/>
  <rect id="svg_5" fill="#e6e6e6" height="8.05267" width="176.54439" y="138.7756" x="185.4182"/>
  <rect id="svg_6" fill="#e6e6e6" height="8.05267" width="103.06377" y="166.34557" x="185.4182"/>
  <rect id="svg_7" fill="#e6e6e6" height="8.05267" width="155.54994" y="193.9155" x="185.4182"/>
  <rect id="svg_8" fill="#e6e6e6" height="17.17729" width="17.17729" y="78.86424" x="121.4805"/>
  <rect id="svg_9" fill="#ffc000" height="17.17729" width="17.17729" y="106.53877" x="121.4805"/>
  <rect id="svg_10" fill="#e6e6e6" height="17.17729" width="17.17729" y="134.2133" x="121.4805"/>
  <rect id="svg_11" fill="#e6e6e6" height="17.17729" width="17.17729" y="161.88783" x="121.4805"/>
  <rect id="svg_12" fill="#e6e6e6" height="17.17729" width="17.17729" y="189.56235" x="121.4805"/>
  <rect id="svg_13" fill="#e6e6e6" height="57.25764" width="57.25763" y="117.9903" x="533.73553"/>
  <rect id="svg_14" fill="#fff" height="171.77293" width="663.33851" y="252.54576" x="20.419"/>
  <rect id="svg_15" fill="#e6e6e6" height="17.17728" width="17.17729" y="267.81207" x="151.06361"/>
  <rect id="svg_16" fill="#ffc000" height="17.17728" width="17.17729" y="267.81207" x="121.4805"/>
  <path id="svg_17" fill="#e6e6e6" d="m412.72388,305.37543a65.04556,65.04556 0 0 0 -105.00299,-9.69992l-4.18616,-3.65796a70.59368,70.59368 0 0 1 113.97296,10.52621l-4.78381,2.83167z"/>
  <path id="svg_18" fill="#ffc000" d="m415.34357,377.79382l-4.6134,-3.10196a65.07765,65.07765 0 0 0 1.99371,-69.31644l4.78387,-2.83167a70.63742,70.63742 0 0 1 -2.16418,75.25012l0,-0.00006z"/>
  <path id="svg_19" fill="#ffc000" d="m304.11398,385.53857a70.58952,70.58952 0 0 1 -0.57925,-93.52106l4.18616,3.65796a65.03087,65.03087 0 0 0 0.53366,86.15411l-4.14056,3.70898z"/>
  <path id="svg_20" fill="#ffc000" d="m356.71405,409.0524a70.70869,70.70869 0 0 1 -52.60001,-23.51382l4.14056,-3.70905a65.04339,65.04339 0 0 0 102.47562,-7.13776l4.6134,3.10199a70.55387,70.55387 0 0 1 -58.62958,31.25864z"/>
  <rect id="svg_21" fill="#e6e6e6" height="57.25763" width="57.25763" y="305.03195" x="533.73553"/>
  <rect id="svg_22" fill="#e6e6e6" height="57.25763" width="57.25764" y="342.24939" x="119.09476"/>
  <rect x="0" y="0" id="svg_23" fill="#ffc000" height="29.89047" width="703.57562"/>
  <circle id="svg_24" fill="#fff" r="5.53997" cy="15.28159" cx="22.21219"/>
  <circle id="svg_25" fill="#fff" r="5.53997" cy="15.28159" cx="43.24053"/>
  <circle id="svg_26" fill="#fff" r="5.53997" cy="15.28159" cx="64.26886"/>
 </g>
</svg>