<svg width="769" height="606" xmlns="http://www.w3.org/2000/svg" data-name="Layer 1">

 <g>
  <title>Layer 1</title>
  <path id="svg_1" fill="#f2f2f2" d="m759.8197,0l-606.99994,0a8.72734,8.72734 0 0 0 -8.71973,8.72l0,219.41l146.8999,0a15.01828,15.01828 0 0 1 15,15l0,185.63l453.81976,0a8.71245,8.71245 0 0 0 6.63043,-3.06a2.0439,2.0439 0 0 0 0.19,-0.23999a8.16642,8.16642 0 0 0 1.24988,-2.11005a8.507,8.507 0 0 0 0.65973,-3.31l0,-411.31998a8.72954,8.72954 0 0 0 -8.73004,-8.72z"/>
  <rect id="svg_2" fill="#ccc" height="2.49281" width="621.95676" y="34.95117" x="145.34061"/>
  <circle id="svg_3" fill="#ccc" r="7.47844" cy="18.69806" cx="166.52951"/>
  <circle id="svg_4" fill="#ccc" r="7.47844" cy="18.69806" cx="188.03002"/>
  <circle id="svg_5" fill="#ccc" r="7.47844" cy="18.69806" cx="209.53053"/>
  <path id="svg_6" fill="#ccc" d="m612.31982,89.38l-312,0a13,13 0 0 0 0,26l312,0a13,13 0 0 0 0,-26zm0,24l-312,0a11,11 0 0 1 0,-22l312,0a11,11 0 0 1 0,22z"/>
  <path id="svg_7" fill="#fff" d="m707.79004,192.95001l-311.99997,0a13,13 0 0 0 0,26l311.99997,0a13,13 0 0 0 0,-26z"/>
  <path id="svg_8" fill="#fff" d="m707.79004,240.95001l-311.99997,0a13,13 0 0 0 0,26l311.99997,0a13,13 0 0 0 0,-26z"/>
  <path id="svg_9" fill="#fff" d="m707.79004,288.95001l-311.99997,0a13,13 0 0 0 0,26l311.99997,0a13,13 0 0 0 0,-26z"/>
  <path id="svg_10" fill="#ccc" d="m345.37006,171.45001l-142.01999,0a11.50392,11.50392 0 0 0 -11.49026,11.48999l0,45.19l2,0l0,-45.19a9.50457,9.50457 0 0 1 9.49026,-9.48999l142.01999,0a9.49788,9.49788 0 0 1 9.48975,9.48999l0,142.02002a9.49788,9.49788 0 0 1 -9.48975,9.48999l-39.37006,0l0,2l39.37012,0a11.49727,11.49727 0 0 0 11.48975,-11.48999l0,-142.02002a11.49723,11.49723 0 0 0 -11.48981,-11.48999z"/>
  <path id="svg_21" fill="#3f3d56" d="m291,226.13l-274,0a17.02411,17.02411 0 0 0 -17,17l0,346a17.0241,17.0241 0 0 0 17,17l274,0a17.02411,17.02411 0 0 0 17,-17l0,-346a17.02412,17.02412 0 0 0 -17,-17zm15,363a15.01828,15.01828 0 0 1 -15,15l-274,0a15.01828,15.01828 0 0 1 -15,-15l0,-346a15.01828,15.01828 0 0 1 15,-15l274,0a15.01828,15.01828 0 0 1 15,15l0,346z"/>
  <path id="svg_24" fill="#ccc" d="m237.00037,465.63l-166,0c-16.957,-0.08167 -17.0275,-25.9115 0.00082,-26l165.99918,0c16.94507,0.07941 17.03693,25.91119 0,26z"/>
  <path id="svg_25" fill="#ccc" d="m237.00037,513.63l-166,0c-16.957,-0.08167 -17.0275,-25.9115 0.00082,-26l165.99918,0c16.94507,0.07941 17.03693,25.91119 0,26z"/>
  <path id="svg_26" fill="#ccc" d="m237.00037,561.63l-166,0c-16.957,-0.08167 -17.0275,-25.9115 0.00082,-26l165.99918,0c16.94507,0.07941 17.03693,25.91119 0,26z"/>
  <path id="svg_27" fill="#ffc000" d="m299,258.13a26,26 0 1 1 26,-26a26.02947,26.02947 0 0 1 -26,26z"/>
  <path id="svg_28" fill="#fff" d="m311,231.13l-11,0l0,-12.5a1,1 0 0 0 -2,0l0,12.5l-11,0a1,1 0 0 0 0,2l11,0l0,12.5a1,1 0 1 0 2,0l0,-12.5l11,0a1,1 0 0 0 0,-2z"/>
  <path id="svg_29" fill="#ffc000" d="m234,408.42981l-160,0a16.51867,16.51867 0 0 1 -16.5,-16.5l0,-89.59961a16.51866,16.51866 0 0 1 16.5,-16.5l160,0a16.51867,16.51867 0 0 1 16.5,16.5l0,89.59961a16.51868,16.51868 0 0 1 -16.5,16.5z"/>
 </g>
</svg>